<svg xmlns="http://www.w3.org/2000/svg" viewBox="0 0 120 120" width="120" height="120" aria-label="ekhopost">
  
  <line x1="60" y1="40" x2="60" y2="25.6" stroke="#7A4F6B" stroke-width="4.5" stroke-linecap="round"/>
  <line x1="66.84040286651337" y1="41.20614758428184" x2="75.04888630632942" y2="18.65352468542003" stroke="#7A4F6B" stroke-width="4.5" stroke-linecap="round"/>
  <line x1="72.85575219373078" y1="44.67911113762044" x2="92.39649552820158" y2="21.391360066803507" stroke="#7A4F6B" stroke-width="4.5" stroke-linecap="round"/>
  <line x1="77.32050807568876" y1="50" x2="92.56255518229489" y2="41.2" stroke="#7A4F6B" stroke-width="4.5" stroke-linecap="round"/>
  <line x1="79.69615506024417" y1="56.52703644666139" x2="90.7260018939809" y2="54.582176856791776" stroke="#7A4F6B" stroke-width="4.5" stroke-linecap="round"/>
  <line x1="79.69615506024417" y1="63.47296355333861" x2="106.48292594217622" y2="68.19619398587912" stroke="#7A4F6B" stroke-width="4.5" stroke-linecap="round"/>
  <line x1="77.32050807568878" y1="70" x2="105.03332099679082" y2="86" stroke="#7A4F6B" stroke-width="4.5" stroke-linecap="round"/>
  <line x1="72.8557521937308" y1="75.32088886237956" x2="86.22573447521081" y2="91.2546132792543" stroke="#7A4F6B" stroke-width="4.5" stroke-linecap="round"/>
  <line x1="66.84040286651337" y1="78.79385241571816" x2="71.21826070108193" y2="90.82191796177779" stroke="#7A4F6B" stroke-width="4.5" stroke-linecap="round"/>
  <line x1="60" y1="80" x2="60" y2="102.4" stroke="#7A4F6B" stroke-width="4.5" stroke-linecap="round"/>
  <line x1="53.15959713348663" y1="78.79385241571816" x2="43.30941700570737" y2="105.85699989435233" stroke="#7A4F6B" stroke-width="4.5" stroke-linecap="round"/>
  <line x1="47.14424780626921" y1="75.32088886237956" x2="36.859646051284585" y2="87.57759995228321" stroke="#7A4F6B" stroke-width="4.5" stroke-linecap="round"/>
  <line x1="42.67949192431123" y1="70" x2="34.36564804798062" y2="74.80000000000001" stroke="#7A4F6B" stroke-width="4.5" stroke-linecap="round"/>
  <line x1="40.30384493975584" y1="63.47296355333861" x2="21.395536081921442" y2="66.80700856454366" stroke="#7A4F6B" stroke-width="4.5" stroke-linecap="round"/>
  <line x1="40.303844939755834" y1="56.5270364466614" x2="10.365689248184708" y2="51.24813184558673" stroke="#7A4F6B" stroke-width="4.5" stroke-linecap="round"/>
  <line x1="42.67949192431123" y1="50" x2="20.5092415874296" y2="37.199999999999996" stroke="#7A4F6B" stroke-width="4.5" stroke-linecap="round"/>
  <line x1="47.144247806269206" y1="44.67911113762044" x2="37.888106226783044" y2="33.64807115670716" stroke="#7A4F6B" stroke-width="4.5" stroke-linecap="round"/>
  <line x1="53.15959713348661" y1="41.20614758428184" x2="47.14004261095483" y2="24.66755745844985" stroke="#7A4F6B" stroke-width="4.5" stroke-linecap="round"/>
</svg>
